<?xml version="1.0" encoding="UTF-8" standalone="no"?>
<!-- Created with Inkscape (http://www.inkscape.org/) -->

<svg
   xmlns:dc="http://purl.org/dc/elements/1.1/"
   xmlns:cc="http://creativecommons.org/ns#"
   xmlns:rdf="http://www.w3.org/1999/02/22-rdf-syntax-ns#"
   xmlns:svg="http://www.w3.org/2000/svg"
   xmlns="http://www.w3.org/2000/svg"
   xmlns:xlink="http://www.w3.org/1999/xlink"
   xmlns:sodipodi="http://sodipodi.sourceforge.net/DTD/sodipodi-0.dtd"
   xmlns:inkscape="http://www.inkscape.org/namespaces/inkscape"
   width="100"
   height="100"
   id="svg2"
   version="1.1"
   inkscape:version="0.48.4 r9939"
   sodipodi:docname="team_2.svg">
  <defs
     id="defs4">
    <linearGradient
       inkscape:collect="always"
       id="linearGradient4199">
      <stop
         style="stop-color:#6f1410;stop-opacity:1"
         offset="0"
         id="stop4201" />
      <stop
         id="stop4207"
         offset="0.19733772"
         style="stop-color:#c2231c;stop-opacity:1;" />
      <stop
         style="stop-color:#c2231c;stop-opacity:1;"
         offset="0.78506285"
         id="stop4209" />
      <stop
         style="stop-color:#921a15;stop-opacity:1"
         offset="1"
         id="stop4203" />
    </linearGradient>
    <linearGradient
       id="linearGradient4185"
       inkscape:collect="always">
      <stop
         id="stop4187"
         offset="0"
         style="stop-color:#c2231c;stop-opacity:1;" />
      <stop
         id="stop4189"
         offset="1"
         style="stop-color:#000000;stop-opacity:1" />
    </linearGradient>
    <inkscape:perspective
       sodipodi:type="inkscape:persp3d"
       inkscape:vp_x="-61.176713 : 1500.1929 : 1"
       inkscape:vp_y="5.9021918e-015 : 96.393293 : 0"
       inkscape:vp_z="-72.401245 : 8.8663025e-015 : 0"
       inkscape:persp3d-origin="444.59311 : 2000.2132 : 1"
       id="perspective9218-1" />
    <clipPath
       id="SVGID_2_">
      <use
         id="use11"
         style="overflow:visible"
         x="0"
         y="0"
         width="840.70001"
         height="1516.6479"
         xlink:href="#SVGID_1_" />
    </clipPath>
    <defs
       id="defs7">
      <rect
         width="1987.276"
         height="2528.572"
         x="-598.18903"
         y="-483.784"
         id="SVGID_1_" />
    </defs>
    <inkscape:perspective
       sodipodi:type="inkscape:persp3d"
       inkscape:vp_x="-121.67571 : 1336.4875 : 1"
       inkscape:vp_y="5.9021918e-015 : 96.393293 : 0"
       inkscape:vp_z="-72.401245 : 8.8663025e-015 : 0"
       inkscape:persp3d-origin="384.09411 : 1836.5078 : 1"
       id="perspective9218" />
    <filter
       id="filter4439"
       inkscape:label="Apparition"
       x="0"
       y="0"
       width="1"
       height="1"
       inkscape:menu="Blurs"
       inkscape:menu-tooltip="Edges are partly feathered out"
       color-interpolation-filters="sRGB">
      <feMorphology
         id="feMorphology4441"
         radius="14.795918367346939"
         in="SourceGraphic"
         result="result0" />
      <feGaussianBlur
         id="feGaussianBlur4443"
         in="result0"
         stdDeviation="8"
         result="result91" />
      <feComposite
         id="feComposite4445"
         in2="result91"
         operator="in"
         in="SourceGraphic" />
    </filter>
    <linearGradient
       inkscape:collect="always"
       xlink:href="#linearGradient4185"
       id="linearGradient4175"
       x1="1475.0145"
       y1="-213.90054"
       x2="1232.4551"
       y2="-207.0784"
       gradientUnits="userSpaceOnUse" />
    <linearGradient
       inkscape:collect="always"
       xlink:href="#linearGradient4185"
       id="linearGradient4177"
       x1="1360.8756"
       y1="9.1051683"
       x2="1228.5752"
       y2="-109.28565"
       gradientUnits="userSpaceOnUse" />
    <linearGradient
       inkscape:collect="always"
       xlink:href="#linearGradient4185"
       id="linearGradient4179"
       x1="499.4422"
       y1="23.511173"
       x2="777.47906"
       y2="-100.17059"
       gradientUnits="userSpaceOnUse" />
    <linearGradient
       inkscape:collect="always"
       xlink:href="#linearGradient4185"
       id="linearGradient4181"
       x1="427.55923"
       y1="-155.23416"
       x2="744.42114"
       y2="-157.42874"
       gradientUnits="userSpaceOnUse" />
    <linearGradient
       inkscape:collect="always"
       xlink:href="#linearGradient4185"
       id="linearGradient4183"
       x1="503.68524"
       y1="-274.24405"
       x2="716.93048"
       y2="-205.04369"
       gradientUnits="userSpaceOnUse" />
    <linearGradient
       inkscape:collect="always"
       xlink:href="#linearGradient4185"
       id="linearGradient4197"
       x1="1499.2427"
       y1="-373.8165"
       x2="1226.2633"
       y2="-278.06699"
       gradientUnits="userSpaceOnUse" />
    <linearGradient
       inkscape:collect="always"
       xlink:href="#linearGradient4199"
       id="linearGradient4205"
       x1="710"
       y1="177.23714"
       x2="1177.5"
       y2="177.23714"
       gradientUnits="userSpaceOnUse" />
    <filter
       inkscape:collect="always"
       id="filter4306"
       x="-0.044506282"
       width="1.0890126"
       y="-0.069081254"
       height="1.1381625"
       color-interpolation-filters="sRGB">
      <feGaussianBlur
         inkscape:collect="always"
         stdDeviation="33.505503"
         id="feGaussianBlur4308" />
    </filter>
  </defs>
  <sodipodi:namedview
     id="base"
     pagecolor="#ffffff"
     bordercolor="#666666"
     borderopacity="1.0"
     inkscape:pageopacity="0.0"
     inkscape:pageshadow="2"
     inkscape:zoom="1.4"
     inkscape:cx="-104.2962"
     inkscape:cy="-6.4059607"
     inkscape:document-units="px"
     inkscape:current-layer="layer1"
     showgrid="false"
     height="92.13px"
     inkscape:snap-bbox="true"
     inkscape:bbox-paths="true"
     inkscape:bbox-nodes="true"
     inkscape:snap-bbox-edge-midpoints="true"
     inkscape:snap-bbox-midpoints="true"
     inkscape:object-paths="true"
     inkscape:snap-intersection-paths="true"
     inkscape:object-nodes="true"
     inkscape:snap-smooth-nodes="true"
     inkscape:snap-midpoints="true"
     inkscape:snap-object-midpoints="true"
     inkscape:snap-center="true"
     inkscape:snap-page="true"
     inkscape:window-width="1920"
     inkscape:window-height="1018"
     inkscape:window-x="1192"
     inkscape:window-y="872"
     inkscape:window-maximized="1"
     fit-margin-top="0"
     fit-margin-left="0"
     fit-margin-right="0"
     fit-margin-bottom="0"
     showguides="true"
     inkscape:guide-bbox="true" />
  <metadata
     id="metadata7">
    <rdf:RDF>
      <cc:Work
         rdf:about="">
        <dc:format>image/svg+xml</dc:format>
        <dc:type
           rdf:resource="http://purl.org/dc/dcmitype/StillImage" />
        <dc:title />
      </cc:Work>
    </rdf:RDF>
  </metadata>
  <g
     inkscape:label="Layer 1"
     inkscape:groupmode="layer"
     id="layer1"
     transform="translate(-908.80483,-21.862444)">
    <g
       id="g4313"
       transform="matrix(0.05082331,0,0,0.05082331,905.945,68.235582)">
      <g
         id="g4310">
        <path
           style="font-size:medium;font-style:normal;font-variant:normal;font-weight:normal;font-stretch:normal;text-indent:0;text-align:start;text-decoration:none;line-height:normal;letter-spacing:normal;word-spacing:normal;text-transform:none;direction:ltr;block-progression:tb;writing-mode:lr-tb;text-anchor:start;baseline-shift:baseline;color:#000000;fill:#000000;fill-opacity:1;fill-rule:nonzero;stroke:none;stroke-width:30;marker:none;visibility:visible;display:inline;overflow:visible;filter:url(#filter4306);enable-background:accumulate;font-family:Sans;-inkscape-font-specification:Sans"
           d="m 997.48079,-510.65683 -22.95971,45.15833 -58.69317,-3.19944 -15.66841,33.30397 -63.88033,-3.37612 -21.76559,43.06075 -70.05616,-3.86287 c -7.48406,13.55812 -17.92708,37.36029 -25.11377,51.0794 -1.41372,2.49553 1.14895,8.0639 -0.24666,10.53644 -12.36565,21.90758 -23.76254,47.24215 -27.97805,67.77122 l -40.56062,-15.13832 14.93008,-23.51459 -325.55546,-51.45327 198.25801,91.52154 -24.52929,32.69517 c 56.70742,11.80428 98.99997,26.54465 155.70725,38.34961 l -151.42186,13.1839 5.33349,-30.94038 -386.60158,73.59232 237.23651,20.96533 -10.97576,53.93456 c 0,0 167.03397,-24.15335 250.54924,-36.24193 L 282.77774,43.03196 534.65478,14.16812 513.42371,68.821425 692.59234,1.13672 c 6.0672,59.35993 27.26346,113.72313 45.34378,164.77116 l 0.11033,0.4413 0.22065,0.4413 5.40595,13.68036 c 2.43105,10.68873 6.33922,27.95991 6.67478,29.45691 l 2.31666,18.97599 0.77246,59.85159 0,0.33098 -0.71721,22.94771 0.0553,0 -1.54455,30.89114 0,0.33098 -1.43441,23.49933 0,0.22065 -0.0551,0.16549 c -2.28682,49.54177 -23.18477,98.01682 -47.32964,146.78806 l -6.84018,13.7356 8.55014,12.7977 c 16.99136,25.3077 41.79536,37.9748 61.39623,48.2123 l 0.77228,0.4413 0.88261,0.3861 c 30.46272,13.3166 66.29468,36.1889 112.80774,35.5248 l 23.77524,-0.331 2.20651,-23.7199 c 3.58037,-38.5343 8.99638,-75.4961 22.72706,-107.8432 l 0.60687,-1.4343 0.38606,-1.4342 c 3.95194,-13.36581 14.7649,-24.10032 29.12593,-29.34657 l 1.76521,-0.66196 1.70996,-0.93776 c 9.0684,-4.89208 17.84378,-4.33428 28.85021,0.8826 11.00639,5.21688 22.19439,16.0044 28.02279,26.42296 l 0.4413,0.77228 0.4413,0.66195 c 22.9004,35.4589 20.9904,84.4529 21.1825,136.6381 l 0.1094,28.6847 28.5743,-2.4272 c 89.3206,-7.5096 167.5497,-59.4233 218.6101,-128.8602 l 10.9221,-14.8388 -10.15,-15.3904 c -50.665,-76.89496 -70.6406,-172.04761 -75.628,-266.76705 l 1.6548,-22.9477 0,-0.0552 2.041,-28.40883 6.2887,-21.95476 19.5827,-68.677635 8.0538,-28.243345 10.7568,-37.621 12.5771,-44.07504 -0.7172,0.1654 c 2.1963,-8.79508 4.2257,-17.60677 5.9576,-26.47812 l 122.7923,41.97886 -2.1515,2.31683 -29.4567,31.93924 41.8684,11.58418 206.6397,57.038295 14.6181,4.08204 10.9224,-10.64641 47.7157,-46.667695 32.9873,-32.15989 -44.4061,-12.30129 -152.1387,-42.03402 17.7622,-31.05664 c -91.1981,-20.53482 -177.7584,-40.33705 -257.3342,-58.25187 0.5942,-14.50381 0.7255,-28.99172 0.2758,-43.46825 53.1769,1.03111 106.3538,2.05963 159.5306,3.08912 -0.6315,11.25285 -1.2513,22.50633 -1.8753,33.7596 64.7805,-2.10317 129.559,-4.26045 194.3383,-6.39888 l -0.2207,1.98586 -3.3097,30.89115 31.0014,-1.65489 193.4559,-10.20511 13.7905,-0.71711 7.2815,-11.69451 32.6564,-52.45978 26.8643,-43.08211 -50.6946,2.64781 -107.6225,5.57144 0.1095,-0.66195 5.2405,-33.42863 -33.7045,2.97879 -178.617,15.83171 16.9901,-35.19384 -45.7851,3.42009 -251.5972,19.03115 -0.662,0.0551 3.8612,-1.3239 226.2226,-76.89688 -0.4966,4.19237 -4.6336,39.93783 38.5588,-11.52902 238.0825,-71.32544 14.8939,-4.46827 3.365,-15.22492 14.0112,-63.60257 9.9293,-45.17839 -44.0197,14.34232 -166.8122,54.39065 0.3861,-11.14305 1.5445,-41.75812 -38.4485,16.4385 -61.4511,26.25748 -0.4414,0.1654 -0.4965,0.22065 -248.1772,117.7175 -9.1572,4.35776 c -6.6733,-34.82614 -12.5771,-74.7555 -36.9588,-111.75974 -0.056,-0.0921 -0.1095,-0.18376 -0.166,-0.27572 -0.1588,-0.2399 -0.281,-0.47767 -0.4413,-0.71721 l -0.055,0.0553 c -22.2817,-36.09921 -58.6238,-60.37789 -99.2379,-69.00869 l -16.5488,-3.47535 -36.7541,47.19154 -28.8802,-47.96916 z m -323.14741,398.65474 c 0.18093,4.08806 0.93326,18.67617 1.82046,31.77375 l -41.9237,12.41162 -1.1585,-38.22779 z"
           id="path20-5-8-9"
           inkscape:connector-curvature="0"
           sodipodi:nodetypes="ccccccccscccccccccccccccccccccccccccccccccccccccccccccccsccccccccccccccccccccccccccccccccccccccccccccccccccccccccccccccccccccccccccccccccccccccccc" />
      </g>
      <g
         transform="translate(57.38443,5.9129174)"
         id="g3655">
        <g
           id="flowRoot4757-4"
           style="font-size:100px;font-style:normal;font-variant:normal;font-weight:normal;font-stretch:normal;text-align:center;line-height:125%;letter-spacing:0px;word-spacing:0px;text-anchor:middle;fill:#ececec;fill-opacity:1;stroke:none;font-family:Franklin Gothic Heavy;-inkscape-font-specification:'Franklin Gothic Heavy,'"
           transform="matrix(-1,0,0,1,476.78119,344.76533)" />
        <g
           transform="translate(399.83109,470.28478)"
           id="g4897">
          <g
             transform="matrix(1,0,0,-1,83.387604,645.79305)"
             style="font-size:100px;font-style:normal;font-variant:normal;font-weight:normal;font-stretch:normal;text-align:center;line-height:125%;letter-spacing:0px;word-spacing:0px;text-anchor:middle;fill:#ececec;fill-opacity:1;stroke:none;font-family:Franklin Gothic Heavy;-inkscape-font-specification:'Franklin Gothic Heavy,'"
             id="flowRoot4757-9" />
        </g>
        <g
           id="flowRoot5589-1-0"
           style="font-size:144px;font-style:normal;font-variant:normal;font-weight:bold;font-stretch:normal;text-align:center;line-height:125%;letter-spacing:0px;word-spacing:0px;text-anchor:middle;fill:#000000;fill-opacity:1;stroke:none;font-family:Kozuka Gothic Pro B;-inkscape-font-specification:Kozuka Gothic Pro B Bold"
           transform="matrix(-1.045153,0,0,1.045153,6817.6858,412.67156)" />
        <path
           sodipodi:nodetypes="ccccccccscccccccccccccccccccccccccccccccccccccccccccccccsccccccccccccccccccccccccccccccccccccccccccccccccccccccccccccccccccccccccccccccccccccccccc"
           inkscape:connector-curvature="0"
           id="path20-5-8"
           d="m 938.41022,-510.6568 -22.95971,45.15833 -58.69317,-3.19944 -15.66841,33.30397 -63.88033,-3.37612 -21.76559,43.06075 -70.05616,-3.86287 c -7.48406,13.55812 -17.92708,37.36029 -25.11377,51.0794 -1.41372,2.49553 1.14895,8.0639 -0.24666,10.53644 -12.36565,21.90758 -23.76254,47.24215 -27.97805,67.77122 l -40.56062,-15.13832 14.93008,-23.51459 -325.55546,-51.45327 198.25801,91.52154 -24.52929,32.69517 c 56.70742,11.80428 98.99997,26.54465 155.70725,38.34961 l -151.42186,13.1839 5.33349,-30.94038 -386.601583,73.59232 237.236513,20.96533 -10.97576,53.934559 c 0,0 167.03397,-24.153344 250.54924,-36.241929 L 223.70717,43.031987 475.58421,14.168155 454.35314,68.821454 633.52177,1.1367526 C 639.58897,60.49668 660.78523,114.85988 678.86555,165.90791 l 0.11033,0.4413 0.22065,0.4413 5.40595,13.68036 c 2.43105,10.68873 6.33922,27.95991 6.67478,29.45691 l 2.31666,18.97599 0.77246,59.85159 0,0.33098 -0.71721,22.94771 0.0553,0 -1.54455,30.89114 0,0.33098 -1.43441,23.49933 0,0.22065 -0.0551,0.16549 c -2.28682,49.54177 -23.18477,98.01682 -47.32964,146.78809 l -6.84018,13.73553 8.55014,12.79776 c 16.99136,25.3077 41.79536,37.9748 61.39623,48.21225 l 0.77228,0.4413 0.88261,0.38614 c 30.46272,13.31657 66.29468,36.18885 112.80774,35.52482 l 23.77524,-0.33098 2.20651,-23.71999 c 3.58037,-38.53423 8.99638,-75.49606 22.72706,-107.84318 l 0.60687,-1.43424 0.38606,-1.43423 c 3.95194,-13.36582 14.7649,-24.10033 29.12593,-29.34658 l 1.76521,-0.66196 1.70996,-0.93776 c 9.0684,-4.89208 17.84378,-4.33428 28.85021,0.8826 11.00642,5.21688 22.19438,16.0044 28.02275,26.42296 l 0.4413,0.77228 0.4413,0.66195 c 22.9004,35.45887 20.99044,84.45288 21.1825,136.63815 l 0.10944,28.68463 28.57427,-2.42716 c 89.3206,-7.50957 167.5497,-59.42328 218.6101,-128.8602 l 10.9221,-14.83878 -10.15,-15.39041 c -50.665,-76.89499 -70.6406,-172.04764 -75.628,-266.76709 l 1.6548,-22.9477 0,-0.0552 2.041,-28.40882 6.2887,-21.95477 19.5827,-68.677634 8.0538,-28.243332 10.7568,-37.620999 12.5771,-44.075043 -0.7172,0.1654 c 2.1963,-8.795079 4.2257,-17.606769 5.9576,-26.478123 l 122.7923,41.978858 -2.1515,2.3168357 -29.4567,31.9392363 41.8684,11.584178 206.6397,57.03829 14.6181,4.082044 10.9224,-10.646412 47.7157,-46.667691 32.9873,-32.1598874 -44.4061,-12.3012946 -152.1387,-42.03402 17.7622,-31.056632 c -91.1981,-20.534826 -177.7584,-40.337054 -257.3342,-58.251874 0.5942,-14.50381 0.7255,-28.99172 0.2758,-43.46825 53.1769,1.03111 106.3538,2.05963 159.5306,3.08912 -0.6315,11.25285 -1.2513,22.50633 -1.8753,33.7596 64.7805,-2.10317 129.559,-4.26045 194.3383,-6.39888 l -0.2207,1.98586 -3.3097,30.89115 31.0014,-1.65489 193.4559,-10.20511 13.7905,-0.71711 7.2815,-11.69451 32.6564,-52.45978 26.8643,-43.08211 -50.6946,2.64781 -107.6225,5.57144 0.1095,-0.66195 5.2405,-33.42863 -33.7045,2.97879 -178.617,15.83171 16.9901,-35.19384 -45.7851,3.42009 -251.5972,19.03115 -0.662,0.0551 3.8612,-1.3239 226.2226,-76.89688 -0.4966,4.19237 -4.6336,39.93783 38.5588,-11.52902 238.0825,-71.32544 14.8939,-4.46827 3.365,-15.22492 14.0112,-63.60257 9.9293,-45.17839 -44.0197,14.34232 -166.8122,54.39065 0.3861,-11.14305 1.5445,-41.75812 -38.4485,16.4385 -61.4511,26.25748 -0.4414,0.1654 -0.4965,0.22065 -248.1772,117.7175 -9.1572,4.35776 c -6.6733,-34.82614 -12.5771,-74.7555 -36.9588,-111.75974 -0.056,-0.0921 -0.1095,-0.18376 -0.166,-0.27572 -0.1588,-0.2399 -0.281,-0.47767 -0.4413,-0.71721 l -0.055,0.0553 c -22.2817,-36.09921 -58.6238,-60.37789 -99.2379,-69.00869 l -16.5488,-3.47535 -36.7541,47.19154 -28.88018,-47.96916 z m -323.14741,398.65474 c 0.18093,4.08806 0.93326,18.676167 1.82046,31.773747 l -41.9237,12.41162 -1.1585,-38.227787 z"
           style="font-size:medium;font-style:normal;font-variant:normal;font-weight:normal;font-stretch:normal;text-indent:0;text-align:start;text-decoration:none;line-height:normal;letter-spacing:normal;word-spacing:normal;text-transform:none;direction:ltr;block-progression:tb;writing-mode:lr-tb;text-anchor:start;baseline-shift:baseline;color:#000000;fill:#000000;fill-opacity:1;fill-rule:nonzero;stroke:none;stroke-width:30;marker:none;visibility:visible;display:inline;overflow:visible;enable-background:accumulate;font-family:Sans;-inkscape-font-specification:Sans" />
        <path
           style="fill:#fab017"
           d="m 949.65627,-497.07536 -13.8125,27.21875 30.46875,1.625 13.84375,-27.21875 -30.5,-1.625 z m 39.96875,18.0625 -13.8125,27.21875 18.6875,32.40625 16.68748,-22.28125 -21.56248,-37.34375 z m 82.78118,1.78125 -64,85.25 c 9.8967,28.81596 32.7696,52.0443 36.3438,79 l -2.7812,44 c 0,0 0.929,5.36386 1.9062,8 l 42.8438,75.15625 -32.9688,64.84375 -49.6562,-0.8125 c -7.79766,15.9495 -16.04539,32.69257 -24.53128,48.28125 l -58.1875,-1.25 -29.375,57.65625 -67.40625,-1.4375 -27.75,-48.09375 c -48.33617,18.46854 -89.42802,36.5473 -138.125,54.09375 3.82856,58.6931 25.60956,114.67605 45.09375,169.68745 l 454.37498,-160.18745 25.4063,-9.09375 4.0312,-14.0625 c 13.5042,-50.91547 18.6322,-103.70418 16.7812,-156.25 -27.3084,1.95777 -54.874,3.37989 -81.9687,-1.53125 24.756,-17.72686 61.326,-13.6393 79.875,-40.59375 3.1271,-21.62237 -4.2372,-43.09321 -7.625,-64.28125 -11.7332,-43.8596 -13.5412,-91.82378 -39.5,-130.625 -18.2279,-30.05496 -48.5436,-50.47346 -82.7813,-57.75 z m -203.18743,19.75 -17,33.46875 37.46875,2 17,-33.46875 -37.46875,-2 z m 46.9375,18.375 -17,33.46875 49.84375,86.3125 36.78125,0.78125 -69.625,-120.5625 z m -130.46875,11.53125 -19.59375,38.5625 43.1875,2.3125 19.625,-38.5625 -43.21875,-2.3125 z m 53.125,19.5 -19.59375,38.5625 48.34375,83.75 42.40625,0.90625 -71.15625,-123.21875 z m -144.78125,23.46875 -18.75,36.90625 41.34375,2.21875 18.75,-36.90625 -41.34375,-2.21875 z m 461.93753,5.28125 c -3.3813,40.09088 -31.3719,78.167 -69.7188,91.25 -9.2945,-1.76399 -18.4572,-4.10225 -27.4375,-6.96875 14.8671,-12.87587 31.0879,-23.98545 46.8437,-35.71875 18.8627,-14.25229 27.2201,-39.46197 50.3126,-48.5625 z m -410.84378,13.8125 -18.75,36.90625 52.25,90.53125 40.5625,0.875 -74.0625,-128.3125 z m -80.71875,52.4375 c -9.61032,14.62747 -19.12862,38.91603 -19.625,55.125 l 52.0625,18.125 -32.4375,-73.25 z m 293.375,6.28125 -17.03125,33.5 35.21875,0.71875 17,-33.46875 c 0,0 -24.91081,-0.79678 -35.1875,-0.75 z m 45.18753,18.0625 -17.00003,33.46875 36.68743,63.53125 36.75,0.75 -56.4374,-97.75 z m -123.34378,23.84375 -19.0625,37.5 41.21875,0.90625 19.0625,-37.5 -41.21875,-0.90625 z m 53.15625,19.53125 -19.625,38.5625 38.21875,66.21875 42.40625,0.90625 -61,-105.6875 z m -142.875,26.8125 -18.78125,36.90625 40.59375,0.875 18.75,-36.90625 -40.5625,-0.875 z m 53.9375,24.03125 -18.75,36.90625 37.34375,64.65625 40.5625,0.875 -59.15625,-102.4375 z m 187.84373,18.4375 -18.6875,36.8125 29.2812,0.625 18.7188,-36.78125 c -1.9345,-0.0147 -29.3125,-0.65625 -29.3125,-0.65625 z m -273.24998,42.9375 c -41.56094,7.48364 -75.6371,6.35044 -116.9375,15.53125 0.44113,13.4505 1.14303,26.89542 2.21875,40.3125 43.10444,-11.65977 81.74752,-24.82939 123.46875,-40.71875 l -8.75,-15.125 z m 187.53125,9.84375 c -4.56377,11.32568 -16.15625,31.8125 -16.15625,31.8125 l 35.25,0.75 16.15625,-31.78125 -35.25,-0.78125 z m -92.0625,47.09375 -19.65625,38.6875 40.5625,0.875 19.6875,-38.71875 -40.59375,-0.84375 z m 304.78123,152.03125 -438.62498,151.53125 0.78125,62.25 418.25003,-145.125 19.5937,-68.65625 z m -30.5937,149.03125 -410.96878,143.5 c -2.58585,56.0204 -25.61172,107.8916 -50.09375,157.3438 12.32786,18.3616 32.44813,29.5464 51.625,39.5624 32.74091,14.3125 64.90448,33.8404 101.875,33.3126 3.65486,-39.3359 9.17027,-79.1203 24.71875,-115.75 6.54151,-22.1235 23.91978,-38.9123 45.375,-46.75 34.61856,-18.6757 75.28994,6.8108 92.5625,37.6874 28.85218,44.6747 25.25038,99.9818 25.43748,150.8438 80.3489,-6.7553 152.3799,-54.1089 199.5,-118.1875 -54.6974,-83.0149 -75.0465,-183.5803 -80.0312,-281.5625 z"
           id="path20-5"
           inkscape:connector-curvature="0" />
        <path
           inkscape:connector-curvature="0"
           d="m 1543.0755,-396.8154 202.9936,-66.13653 -14.0251,63.57751 -238.0999,71.34848 5.2986,-45.79056 -272.9794,95.7495 -5.0471,-17.60372 323.7168,-150.20246 z"
           id="path36-1"
           style="fill:url(#linearGradient4197);fill-opacity:1"
           sodipodi:nodetypes="ccccccccc" />
        <path
           inkscape:connector-curvature="0"
           d="m 336.33238,-343.21379 231.95259,44.9486 -18.88279,28.34429 156.10425,45.09002 11.42407,19.7872 -61.11362,-10.21326 -169.69158,-35.31342 17.55993,-23.67368 z"
           id="path64-9"
           style="fill:url(#linearGradient4183);fill-opacity:1"
           sodipodi:nodetypes="ccccccccc" />
        <path
           inkscape:connector-curvature="0"
           d="m 1232.617,-231.56118 259.6701,-18.12717 -17.2726,35.78781 225.0035,-19.94523 -5.1048,32.928 140.1846,-7.32995 -32.6541,52.50573 -193.4788,10.16973 3.3945,-32.25981 -195.8109,6.44126 1.7908,-32.25313 -185.8842,-3.43446 z"
           id="path84-0"
           style="fill:url(#linearGradient4175);fill-opacity:1"
           sodipodi:nodetypes="ccccccccccccc" />
        <path
           inkscape:connector-curvature="0"
           d="m 168.03743,-147.95098 265.0476,-42.72355 -5.52581,35.44037 199.6461,-17.37941 102.72276,-9.91766 14.49307,25.10249 -406.47855,58.822987 8.45923,-38.407097 z"
           id="path100-8"
           style="fill:url(#linearGradient4181);fill-opacity:1"
           sodipodi:nodetypes="ccccccccc" />
        <path
           inkscape:connector-curvature="0"
           d="m 1228.5752,-109.28565 218.5962,48.13149 -16.9452,29.620511 185.053,51.075823 -47.1229,46.780612 -207.2807,-57.2176172 29.7542,-32.1796398 -165.1737,-56.178739 z"
           id="path116-4"
           style="fill:url(#linearGradient4177);fill-opacity:1"
           sodipodi:nodetypes="ccccccccc" />
        <path
           inkscape:connector-curvature="0"
           d="m 777.47909,-100.17059 8.83645,15.3052 -286.87334,108.376564 12.86255,-34.805598 -188.19344,28.685039 224.4088,-89.690052 1.22294,39.666911 z"
           id="path120-6"
           style="fill:url(#linearGradient4179);fill-opacity:1"
           sodipodi:nodetypes="cccccccc" />
        <path
           style="fill:url(#linearGradient4205);fill-opacity:1"
           d="m 1177.5,9.92464 -467.49998,162.9687 c 2.47217,10.8313 7.34375,32.5313 7.34375,32.5313 L 1166.75,47.58089 1177.5,9.92464 z m -45.4375,159.0937 -411.96873,143.875 -1.5,31.6563 411.25003,-144.3125 2.2187,-31.2188 z"
           id="path128-8"
           inkscape:connector-curvature="0" />
        <g
           id="flowRoot16831"
           style="font-size:40px;font-style:normal;font-variant:normal;font-weight:bold;font-stretch:normal;line-height:125%;letter-spacing:0px;word-spacing:0px;fill:#ff00ff;fill-opacity:1;stroke:none;font-family:Poplar Std;-inkscape-font-specification:Poplar Std Bold"
           transform="matrix(4.2428989,0,0,2.0916807,3703.255,57.96489)" />
      </g>
      <path
         inkscape:connector-curvature="0"
         id="path20-5-4"
         d="m 1005.8437,-489.48158 -13.8125,27.21875 30.4688,1.625 13.8437,-27.21875 -30.5,-1.625 z m 39.9688,18.0625 -13.8125,27.21875 18.6875,32.40625 16.6875,-22.28125 -21.5625,-37.34375 z m 82.7812,1.78125 -64,85.25 c 9.8967,28.81596 32.7696,52.0443 36.3438,79 l -2.7812,44 c 0,0 0.929,5.36386 1.9062,8 l 42.8438,75.15625 -32.9688,64.84375 -49.6562,-0.8125 c -7.7977,15.9495 -16.0454,32.69257 -24.5313,48.28125 l -58.1875,-1.25 -29.375,57.65625 -67.4063,-1.4375 -27.75,-48.09375 c -48.3361,18.46854 -89.428,36.5473 -138.125,54.09375 3.8286,58.693096 25.6096,114.67605 45.0938,169.68745 l 454.375,-160.18745 25.4063,-9.09375 4.0312,-14.0625 c 13.5042,-50.91547 18.6322,-103.70418 16.7812,-156.25 -27.3084,1.95777 -54.874,3.37989 -81.9687,-1.53125 24.756,-17.72686 61.326,-13.6393 79.875,-40.59375 3.1271,-21.62237 -4.2372,-43.09321 -7.625,-64.28125 -11.7332,-43.8596 -13.5412,-91.82378 -39.5,-130.625 -18.2279,-30.05496 -48.5436,-50.47346 -82.7813,-57.75 z m -203.1875,19.75 -17,33.46875 37.4688,2 17,-33.46875 -37.4688,-2 z m 46.9375,18.375 -17,33.46875 49.8438,86.3125 36.7812,0.78125 -69.625,-120.5625 z m -130.4687,11.53125 -19.5938,38.5625 43.1875,2.3125 19.625,-38.5625 -43.2187,-2.3125 z m 53.125,19.5 -19.5938,38.5625 48.3438,83.75 42.4062,0.90625 L 895,-400.48158 z m -144.7813,23.46875 -18.75,36.90625 41.3438,2.21875 18.75,-36.90625 -41.3438,-2.21875 z m 461.9376,5.28125 c -3.3813,40.09088 -31.3719,78.167 -69.7188,91.25 -9.2945,-1.76399 -18.4572,-4.10225 -27.4375,-6.96875 14.8671,-12.87587 31.0879,-23.98545 46.8437,-35.71875 18.8627,-14.25229 27.2201,-39.46197 50.3126,-48.5625 z m -410.8438,13.8125 -18.75,36.90625 52.25,90.53125 40.5625,0.875 -74.0625,-128.3125 z m -80.7188,52.4375 c -9.6103,14.62747 -19.1286,38.91603 -19.625,55.125 l 52.0625,18.125 -32.4375,-73.25 z m 293.375,6.28125 -17.0312,33.5 35.2187,0.71875 17,-33.46875 c 0,0 -24.9108,-0.79678 -35.1875,-0.75 z m 45.1876,18.0625 -17.0001,33.46875 36.6875,63.53125 36.75,0.75 -56.4374,-97.75 z m -123.3438,23.84375 -19.0625,37.5 41.2187,0.90625 19.0625,-37.5 -41.2187,-0.90625 z m 53.1562,19.53125 -19.625,38.5625 38.2188,66.21875 42.4062,0.90625 -61,-105.6875 z m -142.875,26.8125 -18.7812,36.90625 40.5937,0.875 18.75,-36.90625 -40.5625,-0.875 z m 53.9375,24.03125 -18.75,36.90625 37.3438,64.65625 40.5625,0.875 -59.1563,-102.4375 z m 187.8438,18.4375 -18.6875,36.8125 29.2812,0.625 18.7188,-36.78125 c -1.9345,-0.0147 -29.3125,-0.65625 -29.3125,-0.65625 z m -273.25,42.9375 c -41.5609,7.48364 -75.6371,6.35044 -116.9375,15.53125 0.4411,13.4505 1.143,26.89542 2.2187,40.3125 43.1045,-11.65977 81.7476,-24.82939 123.4688,-40.71875 l -8.75,-15.125 z m 187.5312,9.84375 C 997.5925,-104.37465 986,-83.88783 986,-83.88783 l 35.25,0.75 16.1562,-31.78125 -35.25,-0.78125 z m -92.0625,47.09375 -19.6562,38.6875 40.5625,0.875 19.6875,-38.71875 -40.5938,-0.84375 z M 1214.875,83.424666 776.25,234.95592 l 0.7812,62.25 418.2501,-145.125 19.5937,-68.656254 z m -30.5937,149.031254 -410.9688,143.5 c -2.5859,56.0204 -25.6117,107.8916 -50.0938,157.3438 12.3279,18.3616 32.4482,29.5464 51.625,39.5624 32.741,14.3125 64.9045,33.8404 101.875,33.3126 3.6549,-39.3359 9.1703,-79.1203 24.7188,-115.75 6.5415,-22.1235 23.9198,-38.9123 45.375,-46.75 34.6186,-18.6757 75.2899,6.8108 92.5625,37.6874 28.8522,44.6747 25.2504,99.9818 25.4375,150.8438 80.3489,-6.7553 152.3799,-54.1089 199.5,-118.1875 -54.6974,-83.0149 -75.0465,-183.5803 -80.0312,-281.5625 z"
         style="fill:#fcc454;fill-opacity:1;filter:url(#filter4439)" />
    </g>
  </g>
</svg>
